<svg xmlns="http://www.w3.org/2000/svg" width="617" height="616.97" viewBox="0 0 617 616.97">
  <defs>
    <style>
      .cls-1 {
        fill: #b54bea;
        fill-rule: evenodd;
      }
    </style>
  </defs>
  <path class="cls-1" d="M1515.46,6071.99c-170.38,0-308.49,138.12-308.49,308.49s138.11,308.5,308.49,308.5,308.5-138.12,308.5-308.5S1685.84,6071.99,1515.46,6071.99Zm286.55,282.82-42.34-31,5.81-13.24,34.19,25.02Q1801.155,6345.1,1802.01,6354.81Zm-195.06,159.83-61.86-15.13-46.01,44.04-37.62-51.39-63.59,4.21,4.21-63.59-51.38-37.61,44.08-45.97-15.18-61.9,63.33-6.88,28.13-57.16,52.95,35.4,58.3-25.68,17.78,61.17,61.18,17.78-25.68,58.31,35.4,52.95-57.16,28.13Zm5.35,14.55-39.71,80.69-73.08-48.87,49.36-47.34Zm36.21-321.69-19.71-67.8-66.98,29.53-7.76-10.64,82.97-36.57,24.6,84.63Zm28.94,10.99-5.51,83.17-61.47-17.88-17.36-59.71Zm-95.17.43-57,25.15-53.08-35.53,60.23-57.68Zm-80.65-56.38-58.4-39.09-31.46,63.89-12.79-3.13,39.19-79.58,72.95,48.81Zm-39.78,50.34-27.33,55.53-65.75,7.15,9.04-83.3Zm-125.61,187.67,52.57,38.47-4.54,68.28-84.28-24.5Zm-50.18-77.19,79.55-39.15,14.97,61.17-47.01,49.03Zm169.2,182.12,39.81,54.35-81.92,36.12-25.03-86.04Zm170.61-45.71,56.64-27.93,21.14,86.26-85.15,9.27Zm61.21-35.7-36.9-55.1,24.99-56.64,69.92,51.19Zm54.9-78.79-10.63-7.77,29.17-66.1-72.3-21.01,0.88-13.15,89.07,25.91Zm-7.36-151.16-3.17,47.64-13.87-4.02,3.87-58.07Q1728.275,6186.66,1734.62,6194.12Zm-18.35-19.63-55.1,3.64-4.01-13.86,44.65-2.96Q1709.265,6167.655,1716.27,6174.49Zm-155.91-78.21,28.41,38.82-13.25,5.81-34.39-46.97Q1550.835,6094.8,1560.36,6096.28Zm-44.9-3.5c5.21,0,10.39.15,15.53,0.42l-39.61,37.95-12-8.02,31.61-30.29C1512.48,6092.82,1513.97,6092.78,1515.46,6092.78Zm-147.17,40.47,42.31,10.37-6.4,12.98-52.28-12.82Q1359.915,6138.245,1368.29,6133.25Zm-30.48,20.92-5.58,51.11-14.36,1.57,4.31-39.47Q1329.755,6160.51,1337.81,6154.17Zm-60.35,64.64,85.54-9.32-1.41,13.08-70.92,7.7,16.73,68.22-11.81,5.81-20.22-82.36-0.69-2.83Zm-31.95,61.97,32.63-16.05,3.46,14.03-42.28,20.8Q1242.11,6290.035,1245.51,6280.78Zm-12.31,43.82,25.95,38.79-10.02,10.41-19.2-28.71Q1231.205,6334.725,1233.2,6324.6Zm-10.2,87.34,5.88-6.14,57.02-59.51,7.34,10.93-50.76,52.99,57.03,41.76-5.29,12.07-64.15-46.93Zm19.33,59.12,11.89-26.99,11.68,8.55-16.51,37.44Q1245.535,6480.73,1242.33,6471.06Zm20.5,47.18,41.18,11.97-0.98,14.42-29.65-8.63Q1267.8,6527.33,1262.83,6518.24Zm44.54,74.58,0.85-12.8,5.28-79.93,12.66,3.72-4.99,75.2,72.27-4.79,3.68,12.69-76.7,5.05Zm52.58,29.75-7.33-25.22,14.42-.98,10.67,36.75Q1368.635,6628.155,1359.95,6622.57Zm45.92,23.99,38.3-16.91,8.55,11.68-27.85,12.28Q1415.21,6650.415,1405.87,6646.56Zm82.38,30.63-8.17-11.17-47.3-64.65,12.04-5.32,45.16,61.66,53.87-51.58,10.93,7.34-56.58,54.19Zm62.62-11.18-23.63-15.8,10.44-9.99,33.67,22.52Q1561.225,6664.735,1550.87,6666.01Zm45.51-9.38,19.37-39.41,14.07,3.43-14.66,29.78Q1605.92,6653.85,1596.38,6656.63Zm84.73-31.09-10.68-2.62-80.22-19.7,5.8-11.81,73.9,18.11,8.23-75.69,13.11-1.44-8.99,82.53Zm47.46-51.78-34.71,3.79,1.57-14.36,46.34-5.05Q1735.455,6566.18,1728.57,6573.76Zm23.6-29.74-11.42-46.64,12.92-6.39,9.01,36.69Q1757.7,6536.05,1752.17,6544.02Zm38.54-79.62-77.6,38.24-3.16-12.82,66.78-32.86-42.51-63.52,9.1-9.5,49.35,73.75,2.89,4.33Zm12.39-79.46-29.47,30.75-8.05-11.98,37.16-38.76c0.27,5.15.42,10.32,0.42,15.53C1803.16,6381.97,1803.13,6383.46,1803.1,6384.94Zm-327.87,169.61-26.2-35.8-44.04,2.94,16.41,56.54Zm-29.79-28.03,14.13,19.35-28.09,12.36-8.74-30.21Zm-127.76-52.01,54.81,15.99,3-45.29-33.93-24.86Zm50.05-25.71-1.66,24.96-26.86-7.8,12.7-28.74Zm199.8,142.26,26.14-53.15-40.98-10.05-32.73,31.35Zm-12.66-54.95,20.62,5.03-13.99,28.48-24.47-16.38Zm-111.68-314.55-54.16-13.31-5.74,52.79,42.77-4.67Zm-42.93,30.08,2.44-22.54,25.39,6.2-6.89,14.06Zm220.58,21.76,39.32,11.46,3.49-52.57-53.74,3.56Zm26.14-22.93-1.44,22.31-18.63-5.45-4.44-15.26Zm33.47,81.7-15.63,35.52,24.05,35.93,36.77-38.41Zm5.45,53.54-12.56-18.77,6.43-14.58,22.38,16.38Zm-193.21-178.93,33.9,22.68,35.85-15.83-31.71-43.33Zm34.61,14.13-14.84-9.95,16.28-15.63,13.83,18.86Zm84.93,117.22-28.09-8.18-1.44,21.6,17.82,13.04Zm-255.33-35.3-52.01,25.58,30.47,45.55,31.06-32.36Zm-29.04,33.15,26.29-12.92,3.99,16.31-16.48,17.2Zm241.69,21.34,2.06-31.49-31.45,2.09-18.66-25.45-22.74,21.83-30.67-7.5-3.43,31.35-28.28,13.93,17.55,26.23-12.73,28.85,30.28,8.8,8.84,30.31,28.84-12.72,26.23,17.56,13.94-28.29,31.35-3.43-7.5-30.67,21.82-22.74Zm-83.58,111.45,17.78,24.24,22.05-21.14-18.59-12.46Zm61.24-2.12,28.68,7.08,3.26-30.15-21.73,2.35Zm54.97-78.86-14.94,15.53,5.41,22.06,26.07-12.82Zm21.27-16.18,23.23-52.66-55.3-16.08-16.05-55.27-52.69,23.19-47.87-32-25.41,51.64-57.23,6.2,13.74,55.96-39.84,41.53,46.43,34.03-3.79,57.43,57.43-3.79,34.03,46.43,41.56-39.81,55.92,13.7,6.2-57.22,51.65-25.42Zm-32.75,66.69-5.32,48.71-47.57-11.68-35.4,33.9-28.94-39.51-48.87,3.19,3.23-48.84-39.52-28.94,33.91-35.4-11.69-47.56,48.72-5.32,21.63-43.95,40.72,27.27,44.82-19.77,13.67,47.02,47.05,13.7-19.77,44.83,27.28,40.72Zm83.13,12.2-35.95,17.68-4.87,44.67,54.69-5.94Zm-31.58,47.11,2.67-24.53,16.18-7.96,7.28,29.66Zm-74.72-184.27-8.12-28.03-26.49,11.68,13.01,17.78Zm-115.98,26.72,2.35-21.66-30.09,3.26,7.05,28.58Zm58.1-44.73-24.66-16.51-12.79,26.04,21.92,5.35Zm-71.58,135.72-2.02,30.41,30.41-2.02-6.43-22.02Zm-12.43-59.34-21.14,22.05,24.21,17.75,9.36-21.24Z" transform="translate(-1206.97 -6072)"/>
</svg>
